<svg width="47" height="13" viewBox="0 0 47 13" fill="none" xmlns="http://www.w3.org/2000/svg">
  <path d="M47 12.9968C45.2875 12.9968 43.5755 13.0053 41.863 12.9868C40.224 12.9688 38.3896 12.9433 36.7945 12.3418C35.0716 11.6917 33.9309 10.5552 32.7832 9.2177C31.957 8.25568 30.334 6.20313 29.5437 5.21211C28.8969 4.39959 27.6308 2.79356 26.9395 2.01654C26.0692 1.03902 24.9936 1.30614e-07 23.4995 0C22.0054 -1.30614e-07 20.9303 1.03902 20.0605 2.01554C19.3692 2.79206 18.1031 4.39909 17.4558 5.21111C16.6665 6.20213 15.0435 8.25468 14.2168 9.2167C13.0671 10.5542 11.9284 11.6907 10.206 12.3408C8.61043 12.9408 6.77548 12.9678 5.13747 12.9858C3.42448 13.0043 1.71249 12.9958 0 12.9958" fill="currentColor"/>
</svg>