<svg width="24" height="24" viewBox="0 0 24 24" fill="none" xmlns="http://www.w3.org/2000/svg">
<path fill-rule="evenodd" clip-rule="evenodd" d="M12.8644 7.30542C12.639 7.10986 12.3334 7 12.0148 7C11.6961 7 11.3905 7.10986 11.1651 7.30542L4.36688 13.2065C4.2521 13.3028 4.16055 13.4179 4.09757 13.5451C4.03458 13.6724 4.00143 13.8093 4.00005 13.9478C3.99866 14.0863 4.02907 14.2237 4.08949 14.3519C4.14991 14.4801 4.23915 14.5965 4.35198 14.6945C4.46482 14.7924 4.59899 14.8699 4.74668 14.9223C4.89437 14.9748 5.05262 15.0012 5.21219 15C5.37175 14.9988 5.52944 14.97 5.67606 14.9153C5.82268 14.8606 5.95529 14.7812 6.06614 14.6815L12.0148 9.51794L17.9634 14.6815C18.19 14.8716 18.4936 14.9767 18.8087 14.9743C19.1238 14.9719 19.4252 14.8622 19.648 14.6688C19.8708 14.4754 19.9972 14.2138 20 13.9403C20.0027 13.6668 19.8816 13.4033 19.6627 13.2065L12.8644 7.30542Z" fill="#1A1A1A"/>
</svg>
