<svg width="34" height="34" viewBox="0 0 34 34" fill="none" xmlns="http://www.w3.org/2000/svg">
<g clip-path="url(#clip0_1664_25)">
<mask id="mask0_1664_25" style="mask-type:luminance" maskUnits="userSpaceOnUse" x="0" y="0" width="34" height="34">
<path d="M34 0H0V34H34V0Z" fill="white"/>
</mask>
<g mask="url(#mask0_1664_25)">
<path fill-rule="evenodd" clip-rule="evenodd" d="M18.2246 23.6507C17.9053 23.9276 17.4724 24.0833 17.021 24.0833C16.5695 24.0833 16.1366 23.9276 15.8173 23.6507L6.18649 15.2908C6.02388 15.1544 5.89419 14.9913 5.80497 14.8111C5.71573 14.6308 5.66877 14.4368 5.66681 14.2406C5.66484 14.0444 5.70792 13.8498 5.79352 13.6682C5.87911 13.4866 6.00554 13.3216 6.16538 13.1828C6.32524 13.0441 6.51531 12.9343 6.72454 12.86C6.93377 12.7857 7.15795 12.7484 7.38401 12.7501C7.61005 12.7518 7.83345 12.7925 8.04116 12.87C8.24887 12.9474 8.43674 13.06 8.59377 13.2012L17.021 20.5163L25.4482 13.2012C25.7692 12.932 26.1993 12.783 26.6457 12.7864C27.0921 12.7897 27.5191 12.9452 27.8347 13.2192C28.1504 13.4932 28.3294 13.8638 28.3334 14.2512C28.3372 14.6387 28.1657 15.012 27.8556 15.2908L18.2246 23.6507Z" fill="black"/>
</g>
</g>
<defs>
<clipPath id="clip0_1664_25">
<rect width="34" height="34" fill="white"/>
</clipPath>
</defs>
</svg>
