<svg width="24" height="24" viewBox="0 0 24 24" fill="none" xmlns="http://www.w3.org/2000/svg">
<g clip-path="url(#clip0_5374_5289)">
<path fill-rule="evenodd" clip-rule="evenodd" d="M12.8644 16.6946C12.639 16.8901 12.3334 17 12.0148 17C11.6961 17 11.3905 16.8901 11.1651 16.6946L4.36688 10.7935C4.2521 10.6972 4.16055 10.5821 4.09757 10.4549C4.03458 10.3276 4.00143 10.1907 4.00005 10.0522C3.99866 9.91371 4.02907 9.77635 4.08949 9.64815C4.14991 9.51995 4.23915 9.40348 4.35198 9.30553C4.46482 9.20759 4.59899 9.13013 4.74668 9.07768C4.89437 9.02523 5.05262 8.99884 5.21219 9.00004C5.37175 9.00124 5.52944 9.03002 5.67606 9.08469C5.82268 9.13936 5.95529 9.21883 6.06614 9.31846L12.0148 14.4821L17.9634 9.31846C18.19 9.12844 18.4936 9.0233 18.8087 9.02568C19.1238 9.02805 19.4252 9.13776 19.648 9.33117C19.8708 9.52458 19.9972 9.78621 20 10.0597C20.0027 10.3332 19.8816 10.5967 19.6627 10.7935L12.8644 16.6946Z" fill="currentColor"/>
</g>
<defs>
<clipPath id="clip0_5374_5289">
<rect width="24" height="24" fill="white"/>
</clipPath>
</defs>
</svg>