<svg width="34" height="34" viewBox="0 0 34 34" fill="none" xmlns="http://www.w3.org/2000/svg">
<path d="M16.9328 25.0525C17.4025 25.0525 17.7998 24.8901 18.1246 24.5654C18.4494 24.2406 18.6113 23.8438 18.6104 23.3749C18.6095 22.9061 18.4476 22.5088 18.1246 22.1831C17.8016 21.8574 17.4043 21.6955 16.9328 21.6973C16.4613 21.6991 16.0645 21.8615 15.7424 22.1845C15.4203 22.5075 15.2579 22.9043 15.2552 23.3749C15.2525 23.8455 15.4149 24.2428 15.7424 24.5667C16.0698 24.8906 16.4666 25.0525 16.9328 25.0525ZM16.9999 30.421C15.1433 30.421 13.3986 30.0684 11.7657 29.3634C10.1328 28.6583 8.71241 27.7023 7.50452 26.4953C6.29662 25.2883 5.3406 23.8679 4.63644 22.2341C3.93228 20.6003 3.57975 18.8556 3.57886 16.9999C3.57796 15.1442 3.93049 13.3995 4.63644 11.7657C5.34239 10.1319 6.29841 8.71152 7.50452 7.50452C8.71062 6.29752 10.131 5.34149 11.7657 4.63644C13.4004 3.93138 15.1451 3.57886 16.9999 3.57886C18.8547 3.57886 20.5994 3.93138 22.2341 4.63644C23.8688 5.34149 25.2892 6.29752 26.4953 7.50452C27.7014 8.71152 28.6579 10.1319 29.3647 11.7657C30.0716 13.3995 30.4236 15.1442 30.421 16.9999C30.4183 18.8556 30.0658 20.6003 29.3634 22.2341C28.661 23.8679 27.705 25.2883 26.4953 26.4953C25.2856 27.7023 23.8652 28.6588 22.2341 29.3647C20.603 30.0707 18.8583 30.4228 16.9999 30.421ZM16.9999 27.7368C19.9973 27.7368 22.5361 26.6966 24.6164 24.6164C26.6966 22.5361 27.7368 19.9973 27.7368 16.9999C27.7368 14.0025 26.6966 11.4637 24.6164 9.38346C22.5361 7.3032 19.9973 6.26307 16.9999 6.26307C14.0025 6.26307 11.4637 7.3032 9.38346 9.38346C7.3032 11.4637 6.26307 14.0025 6.26307 16.9999C6.26307 19.9973 7.3032 22.5361 9.38346 24.6164C11.4637 26.6966 14.0025 27.7368 16.9999 27.7368ZM17.1341 11.2289C17.6933 11.2289 18.1801 11.4078 18.5943 11.7657C19.0086 12.1236 19.2153 12.571 19.2144 13.1078C19.2144 13.5999 19.0636 14.0361 18.7621 14.4164C18.4606 14.7966 18.1192 15.1545 17.7381 15.49C17.2236 15.9374 16.7709 16.4295 16.3799 16.9664C15.9889 17.5032 15.7929 18.1071 15.792 18.7782C15.792 19.0914 15.9097 19.3544 16.145 19.5674C16.3803 19.7803 16.6541 19.8863 16.9664 19.8854C17.3019 19.8854 17.5873 19.7736 17.8226 19.5499C18.0579 19.3262 18.2087 19.0466 18.2749 18.7111C18.3644 18.2414 18.5657 17.8222 18.8789 17.4535C19.192 17.0849 19.5275 16.7324 19.8854 16.396C20.3999 15.9039 20.8419 15.367 21.2114 14.7854C21.581 14.2039 21.7653 13.5552 21.7644 12.8394C21.7644 11.6986 21.3005 10.7649 20.3726 10.0384C19.4448 9.31188 18.3653 8.94817 17.1341 8.94728C16.2841 8.94728 15.4735 9.12623 14.7022 9.48412C13.931 9.84202 13.3436 10.39 12.94 11.1282C12.7835 11.3966 12.7334 11.682 12.7897 11.9845C12.8461 12.2869 12.9969 12.5159 13.242 12.6716C13.5552 12.8506 13.8795 12.9065 14.215 12.8394C14.5506 12.7723 14.8302 12.5821 15.0539 12.269C15.2999 11.9335 15.6077 11.6762 15.9772 11.4973C16.3468 11.3183 16.7324 11.2289 17.1341 11.2289Z" fill="#1A1A1A"/>
</svg>
