<svg width="34" height="34" viewBox="0 0 34 34" fill="none" xmlns="http://www.w3.org/2000/svg">
<path fill-rule="evenodd" clip-rule="evenodd" d="M21.8799 13.3393C21.8799 14.6337 21.3657 15.8751 20.4505 16.7903C19.5353 17.7056 18.2939 18.2198 16.9996 18.2198C15.7052 18.2198 14.4638 17.7056 13.5486 16.7903C12.6333 15.8751 12.1191 14.6337 12.1191 13.3393C12.1191 12.045 12.6333 10.8036 13.5486 9.88842C14.4638 8.97319 15.7052 8.45898 16.9996 8.45898C18.2939 8.45898 19.5353 8.97319 20.4505 9.88842C21.3657 10.8036 21.8799 12.045 21.8799 13.3393ZM19.4397 13.3393C19.4397 13.9866 19.1826 14.6073 18.725 15.0648C18.2674 15.5225 17.6467 15.7795 16.9996 15.7795C16.3523 15.7795 15.7317 15.5225 15.2741 15.0648C14.8164 14.6073 14.5594 13.9866 14.5594 13.3393C14.5594 12.6922 14.8164 12.0715 15.2741 11.6139C15.7317 11.1563 16.3523 10.8992 16.9996 10.8992C17.6467 10.8992 18.2674 11.1563 18.725 11.6139C19.1826 12.0715 19.4397 12.6922 19.4397 13.3393Z" fill="#1A1A1A"/>
<path fill-rule="evenodd" clip-rule="evenodd" d="M16.9999 3.57886C9.58782 3.57886 3.57886 9.58782 3.57886 16.9999C3.57886 24.412 9.58782 30.421 16.9999 30.421C24.412 30.421 30.421 24.412 30.421 16.9999C30.421 9.58782 24.412 3.57886 16.9999 3.57886ZM6.01905 16.9999C6.01905 19.5499 6.88898 21.8973 8.34699 23.7617C9.37121 22.4173 10.6922 21.3278 12.2069 20.5781C13.7217 19.8284 15.3891 19.4391 17.0792 19.4401C18.7475 19.4382 20.3943 19.8173 21.8939 20.5484C23.3934 21.2796 24.7063 22.3435 25.7321 23.6592C26.7893 22.2727 27.5011 20.6544 27.8086 18.9382C28.1161 17.2219 28.0105 15.4571 27.5006 13.7899C26.9907 12.1225 26.0912 10.6006 24.8762 9.35C23.6613 8.09935 22.1661 7.15601 20.5143 6.59799C18.8624 6.03998 17.1015 5.88334 15.377 6.14103C13.6526 6.39871 12.0143 7.06332 10.5978 8.07986C9.18125 9.09643 8.0271 10.4357 7.23089 11.9868C6.43467 13.5379 6.01927 15.2563 6.01905 16.9999ZM16.9999 27.9807C14.4791 27.9849 12.0343 27.1176 10.0796 25.5259C10.8662 24.3993 11.9136 23.4795 13.1323 22.8447C14.351 22.21 15.7051 21.8791 17.0792 21.8803C18.4361 21.8791 19.7739 22.2017 20.981 22.8213C22.1883 23.441 23.2302 24.3398 24.0204 25.443C22.0504 27.0865 19.5653 27.9848 16.9999 27.9807Z" fill="#1A1A1A"/>
</svg>
