<svg width="38" height="38" viewBox="0 0 38 38" fill="none" xmlns="http://www.w3.org/2000/svg">
<path fill-rule="evenodd" clip-rule="evenodd" d="M24.454 14.9086C24.454 16.3553 23.8793 17.7427 22.8564 18.7656C21.8335 19.7885 20.4461 20.3632 18.9995 20.3632C17.5528 20.3632 16.1654 19.7885 15.1425 18.7656C14.1196 17.7427 13.5449 16.3553 13.5449 14.9086C13.5449 13.462 14.1196 12.0746 15.1425 11.0517C16.1654 10.0288 17.5528 9.4541 18.9995 9.4541C20.4461 9.4541 21.8335 10.0288 22.8564 11.0517C23.8793 12.0746 24.454 13.462 24.454 14.9086ZM21.7267 14.9086C21.7267 15.632 21.4394 16.3257 20.9279 16.8371C20.4165 17.3486 19.7228 17.6359 18.9995 17.6359C18.2761 17.6359 17.5825 17.3486 17.071 16.8371C16.5595 16.3257 16.2722 15.632 16.2722 14.9086C16.2722 14.1853 16.5595 13.4916 17.071 12.9802C17.5825 12.4687 18.2761 12.1814 18.9995 12.1814C19.7228 12.1814 20.4165 12.4687 20.9279 12.9802C21.4394 13.4916 21.7267 14.1853 21.7267 14.9086Z" fill="#1A1A1A"/>
<path fill-rule="evenodd" clip-rule="evenodd" d="M19 4C10.7159 4 4 10.7159 4 19C4 27.2841 10.7159 34 19 34C27.2841 34 34 27.2841 34 19C34 10.7159 27.2841 4 19 4ZM6.72727 19C6.72727 21.85 7.69955 24.4736 9.32909 26.5573C10.4738 25.0547 11.9502 23.837 13.6431 22.9992C15.3361 22.1613 17.1997 21.7261 19.0886 21.7273C20.9532 21.7251 22.7937 22.1488 24.4697 22.966C26.1457 23.7832 27.613 24.9723 28.7595 26.4427C29.9411 24.8931 30.7366 23.0844 31.0803 21.1663C31.424 19.2481 31.306 17.2757 30.7361 15.4123C30.1662 13.5488 29.1608 11.8478 27.8029 10.4501C26.4451 9.05231 24.774 7.99799 22.9278 7.37433C21.0816 6.75067 19.1135 6.5756 17.1862 6.8636C15.2589 7.1516 13.4279 7.8944 11.8447 9.03053C10.2615 10.1667 8.97156 11.6635 8.08168 13.3971C7.19179 15.1307 6.72752 17.0513 6.72727 19ZM19 31.2727C16.1826 31.2773 13.4502 30.308 11.2655 28.5291C12.1447 27.2699 13.3153 26.2419 14.6774 25.5324C16.0395 24.823 17.5529 24.4532 19.0886 24.4545C20.6052 24.4532 22.1003 24.8138 23.4495 25.5063C24.7988 26.1989 25.9633 27.2034 26.8464 28.4364C24.6447 30.2732 21.8672 31.2772 19 31.2727Z" fill="#1A1A1A"/>
</svg>
