<svg width="34" height="34" viewBox="0 0 34 34" fill="none" xmlns="http://www.w3.org/2000/svg">
<path d="M9.92651 16.9999C9.92651 16.7181 10.0385 16.4479 10.2377 16.2486C10.437 16.0494 10.7072 15.9374 10.989 15.9374H15.9374V10.989C15.9374 10.7072 16.0494 10.437 16.2486 10.2377C16.4479 10.0385 16.7181 9.92651 16.9999 9.92651C17.2817 9.92651 17.552 10.0385 17.7512 10.2377C17.9505 10.437 18.0624 10.7072 18.0624 10.989V15.9374H23.0108C23.2926 15.9374 23.5629 16.0494 23.7621 16.2486C23.9614 16.4479 24.0733 16.7181 24.0733 16.9999C24.0733 17.2817 23.9614 17.552 23.7621 17.7512C23.5629 17.9505 23.2926 18.0624 23.0108 18.0624H18.0624V23.0108C18.0624 23.2926 17.9505 23.5629 17.7512 23.7621C17.552 23.9614 17.2817 24.0733 16.9999 24.0733C16.7181 24.0733 16.4479 23.9614 16.2486 23.7621C16.0494 23.5629 15.9374 23.2926 15.9374 23.0108V18.0624H10.989C10.7072 18.0624 10.437 17.9505 10.2377 17.7512C10.0385 17.552 9.92651 17.2817 9.92651 16.9999Z" fill="#1A1A1A"/>
<path fill-rule="evenodd" clip-rule="evenodd" d="M10.3658 5.33952C14.7751 4.85069 19.2249 4.85069 23.6343 5.33952C26.2225 5.62852 28.3121 7.66711 28.6153 10.2695C29.1394 14.7419 29.1394 19.2597 28.6153 23.7321C28.3107 26.3345 26.2211 28.3717 23.6343 28.6621C19.2249 29.1509 14.7751 29.1509 10.3658 28.6621C7.77752 28.3717 5.68794 26.3345 5.38477 23.7321C4.86295 19.2598 4.86295 14.7419 5.38477 10.2695C5.68794 7.66711 7.77894 5.62852 10.3658 5.33952ZM23.3991 7.45036C19.1461 6.97893 14.854 6.97893 10.6009 7.45036C9.81362 7.5377 9.07873 7.88793 8.51501 8.44446C7.95128 9.00098 7.59164 9.73131 7.49419 10.5174C6.99032 14.8255 6.99032 19.1776 7.49419 23.4856C7.59194 24.2715 7.95171 25.0015 8.51541 25.5577C9.07911 26.114 9.81383 26.464 10.6009 26.5513C14.8184 27.0216 19.1817 27.0216 23.3991 26.5513C24.186 26.4637 24.9204 26.1135 25.4838 25.5573C26.0472 25.0011 26.4068 24.2713 26.5044 23.4856C27.0083 19.1776 27.0083 14.8255 26.5044 10.5174C26.4065 9.73203 26.0468 9.00252 25.4834 8.44659C24.92 7.89066 24.1858 7.54071 23.3991 7.45319" fill="#1A1A1A"/>
</svg>
