<svg width="34" height="34" viewBox="0 0 34 34" fill="none" xmlns="http://www.w3.org/2000/svg">
<path fill-rule="evenodd" clip-rule="evenodd" d="M18.2246 10.3494C17.9053 10.0724 17.4724 9.91675 17.021 9.91675C16.5695 9.91675 16.1366 10.0724 15.8173 10.3494L6.18649 18.7093C6.02388 18.8457 5.89419 19.0088 5.80497 19.189C5.71573 19.3693 5.66877 19.5633 5.66681 19.7595C5.66484 19.9557 5.70792 20.1503 5.79352 20.3319C5.87911 20.5136 6.00554 20.6785 6.16538 20.8173C6.32524 20.956 6.51531 21.0658 6.72454 21.14C6.93377 21.2144 7.15795 21.2518 7.38401 21.2501C7.61005 21.2484 7.83345 21.2076 8.04116 21.1301C8.24887 21.0526 8.43674 20.9401 8.59377 20.7989L17.021 13.4838L25.4482 20.7989C25.7692 21.0682 26.1993 21.2171 26.6457 21.2137C27.0921 21.2103 27.5191 21.0549 27.8347 20.7809C28.1504 20.5069 28.3294 20.1363 28.3334 19.7488C28.3372 19.3614 28.1657 18.9881 27.8556 18.7093L18.2246 10.3494Z" fill="#1A1A1A"/>
</svg>
