<svg width="24" height="24" viewBox="0 0 24 24" fill="none" xmlns="http://www.w3.org/2000/svg">
<path fill-rule="evenodd" clip-rule="evenodd" d="M16.6946 11.1356C16.8901 11.361 17 11.6666 17 11.9852C17 12.3039 16.8901 12.6095 16.6946 12.8349L10.7935 19.6331C10.6972 19.7479 10.5821 19.8395 10.4549 19.9024C10.3276 19.9654 10.1907 19.9986 10.0522 20C9.91371 20.0013 9.77635 19.9709 9.64815 19.9105C9.51995 19.8501 9.40348 19.7609 9.30553 19.648C9.20759 19.5352 9.13013 19.401 9.07768 19.2533C9.02523 19.1056 8.99884 18.9474 9.00004 18.7878C9.00124 18.6282 9.03002 18.4706 9.08469 18.3239C9.13936 18.1773 9.21883 18.0447 9.31846 17.9339L14.4821 11.9852L9.31846 6.03661C9.12844 5.80995 9.0233 5.50639 9.02568 5.1913C9.02805 4.87621 9.13776 4.57479 9.33117 4.35198C9.52458 4.12917 9.78621 4.00278 10.0597 4.00004C10.3332 3.99731 10.5967 4.11843 10.7935 4.33734L16.6946 11.1356Z" fill="#1A1A1A"/>
</svg>
