<svg width="24" height="24" viewBox="0 0 24 24" fill="none" xmlns="http://www.w3.org/2000/svg">
<path fill-rule="evenodd" clip-rule="evenodd" d="M7.30542 12.8644C7.10986 12.639 7 12.3334 7 12.0148C7 11.6961 7.10986 11.3905 7.30542 11.1651L13.2065 4.36688C13.3028 4.2521 13.4179 4.16055 13.5451 4.09757C13.6724 4.03458 13.8093 4.00143 13.9478 4.00005C14.0863 3.99866 14.2237 4.02907 14.3519 4.08949C14.4801 4.14991 14.5965 4.23915 14.6945 4.35198C14.7924 4.46482 14.8699 4.59899 14.9223 4.74668C14.9748 4.89437 15.0012 5.05262 15 5.21219C14.9988 5.37175 14.97 5.52944 14.9153 5.67606C14.8606 5.82268 14.7812 5.95529 14.6815 6.06614L9.51794 12.0148L14.6815 17.9634C14.8716 18.19 14.9767 18.4936 14.9743 18.8087C14.9719 19.1238 14.8622 19.4252 14.6688 19.648C14.4754 19.8708 14.2138 19.9972 13.9403 20C13.6668 20.0027 13.4033 19.8816 13.2065 19.6627L7.30542 12.8644Z" fill="#1A1A1A"/>
</svg>
