<svg width="40" height="40" viewBox="0 0 40 40" fill="none" xmlns="http://www.w3.org/2000/svg">
<rect x="1" y="1" width="38" height="38" rx="7" fill="#FEEDD2" stroke="#FFA321" stroke-width="2"/>
<path d="M15.9176 25.25L30.0426 11.125C30.3759 10.7917 30.7648 10.625 31.2093 10.625C31.6537 10.625 32.0426 10.7917 32.3759 11.125C32.7093 11.4583 32.876 11.8544 32.876 12.3133C32.876 12.7722 32.7093 13.1678 32.3759 13.5L17.0843 28.8333C16.751 29.1667 16.3621 29.3333 15.9176 29.3333C15.4732 29.3333 15.0843 29.1667 14.751 28.8333L7.58429 21.6667C7.25095 21.3333 7.09095 20.9378 7.10428 20.48C7.11762 20.0222 7.29151 19.6261 7.62595 19.2917C7.9604 18.9572 8.35651 18.7906 8.81428 18.7917C9.27206 18.7928 9.66762 18.9594 10.001 19.2917L15.9176 25.25Z" fill="#FFA321"/>
</svg>
