<svg width="38" height="38" viewBox="0 0 38 38" fill="none" xmlns="http://www.w3.org/2000/svg">
<path d="M18.925 28C19.45 28 19.894 27.8185 20.257 27.4555C20.62 27.0925 20.801 26.649 20.8 26.125C20.799 25.601 20.618 25.157 20.257 24.793C19.896 24.429 19.452 24.248 18.925 24.25C18.398 24.252 17.9545 24.4335 17.5945 24.7945C17.2345 25.1555 17.053 25.599 17.05 26.125C17.047 26.651 17.2285 27.095 17.5945 27.457C17.9605 27.819 18.404 28 18.925 28ZM19 34C16.925 34 14.975 33.606 13.15 32.818C11.325 32.03 9.7375 30.9615 8.3875 29.6125C7.0375 28.2635 5.969 26.676 5.182 24.85C4.395 23.024 4.001 21.074 4 19C3.999 16.926 4.393 14.976 5.182 13.15C5.971 11.324 7.0395 9.7365 8.3875 8.3875C9.7355 7.0385 11.323 5.97 13.15 5.182C14.977 4.394 16.927 4 19 4C21.073 4 23.023 4.394 24.85 5.182C26.677 5.97 28.2645 7.0385 29.6125 8.3875C30.9605 9.7365 32.0295 11.324 32.8195 13.15C33.6095 14.976 34.003 16.926 34 19C33.997 21.074 33.603 23.024 32.818 24.85C32.033 26.676 30.9645 28.2635 29.6125 29.6125C28.2605 30.9615 26.673 32.0305 24.85 32.8195C23.027 33.6085 21.077 34.002 19 34ZM19 31C22.35 31 25.1875 29.8375 27.5125 27.5125C29.8375 25.1875 31 22.35 31 19C31 15.65 29.8375 12.8125 27.5125 10.4875C25.1875 8.1625 22.35 7 19 7C15.65 7 12.8125 8.1625 10.4875 10.4875C8.1625 12.8125 7 15.65 7 19C7 22.35 8.1625 25.1875 10.4875 27.5125C12.8125 29.8375 15.65 31 19 31ZM19.15 12.55C19.775 12.55 20.319 12.75 20.782 13.15C21.245 13.55 21.476 14.05 21.475 14.65C21.475 15.2 21.3065 15.6875 20.9695 16.1125C20.6325 16.5375 20.251 16.9375 19.825 17.3125C19.25 17.8125 18.744 18.3625 18.307 18.9625C17.87 19.5625 17.651 20.2375 17.65 20.9875C17.65 21.3375 17.7815 21.6315 18.0445 21.8695C18.3075 22.1075 18.6135 22.226 18.9625 22.225C19.3375 22.225 19.6565 22.1 19.9195 21.85C20.1825 21.6 20.351 21.2875 20.425 20.9125C20.525 20.3875 20.75 19.919 21.1 19.507C21.45 19.095 21.825 18.701 22.225 18.325C22.8 17.775 23.294 17.175 23.707 16.525C24.12 15.875 24.326 15.15 24.325 14.35C24.325 13.075 23.8065 12.0315 22.7695 11.2195C21.7325 10.4075 20.526 10.001 19.15 10C18.2 10 17.294 10.2 16.432 10.6C15.57 11 14.9135 11.6125 14.4625 12.4375C14.2875 12.7375 14.2315 13.0565 14.2945 13.3945C14.3575 13.7325 14.526 13.9885 14.8 14.1625C15.15 14.3625 15.5125 14.425 15.8875 14.35C16.2625 14.275 16.575 14.0625 16.825 13.7125C17.1 13.3375 17.444 13.05 17.857 12.85C18.27 12.65 18.701 12.55 19.15 12.55Z" fill="#1A1A1A"/>
</svg>
