<svg xmlns="http://www.w3.org/2000/svg" width="39" height="44" viewBox="0 0 39 44" fill="none">
  <path d="M31.875 17.625H31.25V12C31.25 8.85055 29.9989 5.8301 27.7719 3.60311C25.5449 1.37611 22.5244 0.125 19.375 0.125C16.2256 0.125 13.2051 1.37611 10.9781 3.60311C8.75111 5.8301 7.5 8.85055 7.5 12V17.625H6.875C5.05164 17.625 3.30295 18.3493 2.01364 19.6386C0.724328 20.928 0 22.6766 0 24.5V37C0 38.8234 0.724328 40.572 2.01364 41.8614C3.30295 43.1507 5.05164 43.875 6.875 43.875H31.875C33.6984 43.875 35.447 43.1507 36.7364 41.8614C38.0257 40.572 38.75 38.8234 38.75 37V24.5C38.75 22.6766 38.0257 20.928 36.7364 19.6386C35.447 18.3493 33.6984 17.625 31.875 17.625ZM11.25 12C11.25 9.84512 12.106 7.77849 13.6298 6.25476C15.1535 4.73102 17.2201 3.875 19.375 3.875C21.5299 3.875 23.5965 4.73102 25.1202 6.25476C26.644 7.77849 27.5 9.84512 27.5 12V17.625H11.25V12ZM35 37C35 37.8288 34.6708 38.6237 34.0847 39.2097C33.4987 39.7958 32.7038 40.125 31.875 40.125H6.875C6.0462 40.125 5.25134 39.7958 4.66529 39.2097C4.07924 38.6237 3.75 37.8288 3.75 37V24.5C3.75 23.6712 4.07924 22.8763 4.66529 22.2903C5.25134 21.7042 6.0462 21.375 6.875 21.375H31.875C32.7038 21.375 33.4987 21.7042 34.0847 22.2903C34.6708 22.8763 35 23.6712 35 24.5V37Z" fill="#1A1A1A"/>
</svg>