<svg xmlns="http://www.w3.org/2000/svg" width="60" height="60" viewBox="0 0 60 60" fill="none">
  <path d="M10 15L25.27 26.53L25.275 26.535C26.97 27.7775 27.8175 28.4 28.7475 28.64C29.569 28.8526 30.431 28.8526 31.2525 28.64C32.1825 28.4 33.0325 27.7775 34.7325 26.53C34.7325 26.53 44.525 19.015 50 15M7.5 39.5V20.5C7.5 17.7 7.5 16.3 8.045 15.23C8.525 14.2875 9.2875 13.525 10.23 13.045C11.3 12.5 12.7 12.5 15.5 12.5H44.5C47.3 12.5 48.7 12.5 49.7675 13.045C50.71 13.525 51.475 14.2875 51.955 15.23C52.5 16.2975 52.5 17.6975 52.5 20.4925V39.51C52.5 42.305 52.5 43.7 51.955 44.77C51.475 45.7112 50.7092 46.4761 49.7675 46.955C48.7 47.5 47.3025 47.5 44.5075 47.5H15.4925C12.6975 47.5 11.2975 47.5 10.23 46.955C9.28923 46.4756 8.52436 45.7108 8.045 44.77C7.5 43.7 7.5 42.3 7.5 39.5Z" stroke="#1A1A1A" stroke-width="4" stroke-linecap="round" stroke-linejoin="round"/>
</svg>