<svg width="34" height="41" viewBox="0 0 34 41" fill="none" xmlns="http://www.w3.org/2000/svg">
<path fill-rule="evenodd" clip-rule="evenodd" d="M10.2 3.41675C9.18558 3.41675 8.21263 3.82171 7.4953 4.54255C6.77799 5.2634 6.375 6.24107 6.375 7.2605V33.7397C6.375 34.7591 6.77799 35.7368 7.4953 36.4576C8.21263 37.1785 9.18558 37.5834 10.2 37.5834H23.8C24.8144 37.5834 25.7874 37.1785 26.5047 36.4576C27.222 35.7368 27.625 34.7591 27.625 33.7397V7.2605C27.625 6.24107 27.222 5.2634 26.5047 4.54255C25.7874 3.82171 24.8144 3.41675 23.8 3.41675H10.2ZM8.925 7.2605C8.925 6.92068 9.0593 6.5948 9.29846 6.35451C9.53754 6.11423 9.86184 5.97925 10.2 5.97925H23.8C24.1382 5.97925 24.4625 6.11423 24.7015 6.35451C24.9407 6.5948 25.075 6.92068 25.075 7.2605V33.7397C25.075 34.0795 24.9407 34.4054 24.7015 34.6456C24.4625 34.886 24.1382 35.0209 23.8 35.0209H10.2C9.86184 35.0209 9.53754 34.886 9.29846 34.6456C9.0593 34.4054 8.925 34.0795 8.925 33.7397V7.2605Z" fill="#1A1A1A"/>
<path d="M15.5828 29.8958C15.301 29.8958 15.0307 30.0307 14.8315 30.271C14.6322 30.5113 14.5203 30.8372 14.5203 31.177C14.5203 31.5168 14.6322 31.8427 14.8315 32.083C15.0307 32.3233 15.301 32.4583 15.5828 32.4583H18.4161C18.6979 32.4583 18.9681 32.3233 19.1674 32.083C19.3667 31.8427 19.4786 31.5168 19.4786 31.177C19.4786 30.8372 19.3667 30.5113 19.1674 30.271C18.9681 30.0307 18.6979 29.8958 18.4161 29.8958H15.5828Z" fill="#1A1A1A"/>
</svg>
