<svg xmlns="http://www.w3.org/2000/svg" width="60" height="60" viewBox="0 0 60 60" fill="none">
  <path d="M27.5 43.75C27.0027 43.75 26.5258 43.9475 26.1742 44.2992C25.8225 44.6508 25.625 45.1277 25.625 45.625C25.625 46.1223 25.8225 46.5992 26.1742 46.9508C26.5258 47.3025 27.0027 47.5 27.5 47.5H32.5C32.9973 47.5 33.4742 47.3025 33.8258 46.9508C34.1775 46.5992 34.375 46.1223 34.375 45.625C34.375 45.1277 34.1775 44.6508 33.8258 44.2992C33.4742 43.9475 32.9973 43.75 32.5 43.75H27.5Z" fill="#1A1A1A"/>
  <path fill-rule="evenodd" clip-rule="evenodd" d="M20 5C18.5082 5 17.0774 5.59263 16.0225 6.64752C14.9676 7.70242 14.375 9.13316 14.375 10.625V49.375C14.375 50.8668 14.9676 52.2976 16.0225 53.3525C17.0774 54.4074 18.5082 55 20 55H40C41.4918 55 42.9226 54.4074 43.9775 53.3525C45.0324 52.2976 45.625 50.8668 45.625 49.375V10.625C45.625 9.13316 45.0324 7.70242 43.9775 6.64752C42.9226 5.59263 41.4918 5 40 5H20ZM18.125 10.625C18.125 10.1277 18.3225 9.65081 18.6742 9.29917C19.0258 8.94754 19.5027 8.75 20 8.75H40C40.4973 8.75 40.9742 8.94754 41.3258 9.29917C41.6775 9.65081 41.875 10.1277 41.875 10.625V49.375C41.875 49.8723 41.6775 50.3492 41.3258 50.7008C40.9742 51.0525 40.4973 51.25 40 51.25H20C19.5027 51.25 19.0258 51.0525 18.6742 50.7008C18.3225 50.3492 18.125 49.8723 18.125 49.375V10.625Z" fill="#1A1A1A"/>
</svg>