<svg width="30" height="30" viewBox="0 0 30 30" fill="none" xmlns="http://www.w3.org/2000/svg">
<path d="M13.9913 19.6591C13.6008 20.0497 12.9675 20.0496 12.577 19.659L9.15874 16.24C8.70323 15.7843 8.70327 15.0457 9.15884 14.5902C9.6144 14.1346 10.353 14.1345 10.8086 14.59L13.2842 17.0647L19.0574 11.2904C19.5133 10.8345 20.2524 10.8344 20.7083 11.2903C21.1641 11.7462 21.1642 12.4852 20.7084 12.9411L13.9913 19.6591Z" fill="#FEFEFE"/>
<path fill-rule="evenodd" clip-rule="evenodd" d="M2.5 15C2.5 8.09659 8.09659 2.5 15 2.5C21.9034 2.5 27.5 8.09659 27.5 15C27.5 21.9034 21.9034 27.5 15 27.5C8.09659 27.5 2.5 21.9034 2.5 15ZM15 25.2273C13.6569 25.2273 12.327 24.9627 11.0862 24.4488C9.84536 23.9348 8.71792 23.1815 7.76823 22.2318C6.81854 21.2821 6.0652 20.1546 5.55123 18.9138C5.03726 17.673 4.77273 16.3431 4.77273 15C4.77273 13.6569 5.03726 12.327 5.55123 11.0862C6.0652 9.84536 6.81854 8.71792 7.76823 7.76823C8.71792 6.81854 9.84536 6.0652 11.0862 5.55123C12.327 5.03726 13.6569 4.77273 15 4.77273C17.7124 4.77273 20.3138 5.85024 22.2318 7.76823C24.1498 9.68621 25.2273 12.2876 25.2273 15C25.2273 17.7124 24.1498 20.3138 22.2318 22.2318C20.3138 24.1498 17.7124 25.2273 15 25.2273Z" fill="#FEFEFE"/>
</svg>
