<svg width="58" height="58" viewBox="0 0 58 58" fill="none" xmlns="http://www.w3.org/2000/svg">
<path d="M21.75 50.75H36.25M43.5 23.5625V27.1875C43.5 35.1625 36.975 41.6875 29 41.6875M29 41.6875C21.025 41.6875 14.5 35.1625 14.5 27.1875V23.5625M29 41.6875V50.75" stroke="#1A1A1A" stroke-width="3.625" stroke-linecap="round" stroke-linejoin="round"/>
<path d="M29.0001 7.25009C28.0467 7.24529 27.1017 7.42954 26.22 7.79218C25.3382 8.15483 24.537 8.68868 23.8629 9.36286C23.1887 10.037 22.6548 10.8382 22.2922 11.72C21.9295 12.6017 21.7453 13.5467 21.7501 14.5001V27.0743C21.7501 31.0618 25.0352 34.4376 29.0001 34.4376C32.9649 34.4376 36.2501 31.1524 36.2501 27.0743V14.5001C36.2501 10.422 33.0782 7.25009 29.0001 7.25009Z" stroke="#1A1A1A" stroke-width="3.625" stroke-linecap="round" stroke-linejoin="round"/>
</svg>
