<svg width="24" height="25" viewBox="0 0 24 25" fill="none" xmlns="http://www.w3.org/2000/svg">
<path d="M13.1538 2.56927C13.3047 2.63279 13.4336 2.73937 13.5243 2.87568C13.6149 3.012 13.6634 3.17202 13.6637 3.33574V21.6644C13.6637 21.8285 13.6152 21.9889 13.5244 22.1255C13.4336 22.2621 13.3045 22.3689 13.1532 22.4324C13.0019 22.496 12.8353 22.5134 12.6742 22.4826C12.513 22.4518 12.3646 22.3741 12.2474 22.2593L7.37031 17.4688H4.49937C3.83649 17.4688 3.20077 17.2055 2.73205 16.7368C2.26333 16.2681 2 15.6323 2 14.9695V9.98739C2 9.32452 2.26333 8.68879 2.73205 8.22007C3.20077 7.75135 3.83649 7.48802 4.49937 7.48802H7.37197L12.2491 2.73922C12.3663 2.62484 12.5147 2.54756 12.6756 2.51704C12.8365 2.48651 13.0029 2.50577 13.1538 2.56927ZM11.9975 5.30857L8.29341 8.91933C8.13743 9.07141 7.92808 9.15635 7.71022 9.15593H4.49937C4.27841 9.15593 4.0665 9.24371 3.91026 9.39995C3.75402 9.55619 3.66625 9.7681 3.66625 9.98906V14.9695C3.66625 15.1904 3.75402 15.4023 3.91026 15.5586C4.0665 15.7148 4.27841 15.8026 4.49937 15.8026H7.71189C7.92998 15.8026 8.13936 15.8882 8.29507 16.0409L11.9975 19.6783V5.30857ZM15.5149 7.81461C15.583 7.72888 15.6674 7.65743 15.7631 7.60433C15.8589 7.55123 15.9642 7.51753 16.073 7.50515C16.1818 7.49277 16.2919 7.50195 16.3972 7.53218C16.5024 7.56241 16.6006 7.61308 16.6863 7.68131L16.6896 7.68297L16.693 7.6863L16.7013 7.69297L16.7263 7.71463L16.8029 7.78128C16.864 7.83682 16.9429 7.91569 17.0395 8.01789C17.2278 8.22284 17.4728 8.52109 17.7144 8.91766C18.1992 9.71746 18.6691 10.9055 18.6691 12.4968C18.6691 14.0864 18.1992 15.2761 17.7144 16.0758C17.5199 16.398 17.2939 16.7 17.0395 16.9773C16.9325 17.0914 16.8202 17.2003 16.7029 17.3039L16.6896 17.3155H16.688C16.688 17.3155 15.9431 17.7204 15.5166 17.1856C15.3794 17.014 15.3156 16.7951 15.339 16.5767C15.3624 16.3582 15.4711 16.1579 15.6416 16.0192L15.6449 16.0159L15.6749 15.9892C15.706 15.9614 15.7532 15.9142 15.8165 15.8476C15.9949 15.6516 16.1535 15.4384 16.2897 15.2111C16.6396 14.6362 17.0029 13.7414 17.0029 12.4951C17.0029 11.2487 16.6396 10.3573 16.2897 9.78411C16.1181 9.50148 15.9122 9.24123 15.6765 9.0093L15.6465 8.98264C15.4746 8.8449 15.3643 8.64469 15.3396 8.4258C15.315 8.2069 15.378 7.98715 15.5149 7.81461ZM18.3509 4.34882C18.2656 4.27823 18.1671 4.22535 18.0611 4.19327C17.9551 4.16119 17.8438 4.15055 17.7337 4.16197C17.6236 4.1734 17.5169 4.20666 17.4197 4.2598C17.3226 4.31295 17.2371 4.38493 17.1681 4.47152C17.0991 4.55811 17.0481 4.65759 17.018 4.76413C16.9879 4.87067 16.9793 4.98215 16.9928 5.09204C17.0062 5.20193 17.0415 5.30803 17.0964 5.40415C17.1514 5.50026 17.2249 5.58446 17.3128 5.65182L17.3311 5.66848L17.4178 5.74346C17.4977 5.81344 17.6094 5.92175 17.7527 6.06838C18.0359 6.36331 18.4192 6.80653 18.8024 7.39138C19.5689 8.55942 20.3354 10.279 20.3354 12.5051C20.3419 14.3217 19.8083 16.0993 18.8024 17.6121C18.4192 18.1953 18.0359 18.6352 17.7527 18.9285C17.6186 19.0678 17.4785 19.2012 17.3328 19.3284L17.3145 19.345H17.3128C17.1446 19.4842 17.0378 19.6838 17.0153 19.9009C16.9928 20.118 17.0563 20.3353 17.1924 20.506C17.3284 20.6767 17.5259 20.7872 17.7426 20.8138C17.9592 20.8403 18.1776 20.7808 18.3509 20.648L18.4058 20.603L18.5308 20.4947C18.6358 20.3998 18.7808 20.2648 18.9524 20.0865C19.4145 19.6066 19.8307 19.0845 20.1954 18.5269C21.379 16.7422 22.007 14.6466 21.9999 12.5051C22.0043 10.3619 21.3767 8.26492 20.1954 6.47661C19.8306 5.91853 19.4151 5.39533 18.954 4.91367C18.7798 4.73279 18.5974 4.55988 18.4075 4.39547L18.3692 4.36381L18.3575 4.35381L18.3542 4.35048L18.3509 4.34882Z" fill="#1A1A1A"/>
</svg>
