<svg width="60" height="60" viewBox="0 0 60 60" fill="none" xmlns="http://www.w3.org/2000/svg">
<path d="M43.9315 25.3427H43.2661V19.3548C43.2661 16.0021 41.9343 12.7868 39.5636 10.4161C37.193 8.04545 33.9776 6.71362 30.625 6.71362C27.2724 6.71362 24.057 8.04545 21.6864 10.4161C19.3157 12.7868 17.9839 16.0021 17.9839 19.3548V25.3427H17.3185C15.3775 25.3427 13.516 26.1137 12.1436 27.4862C10.7711 28.8587 10 30.7202 10 32.6612V45.9677C10 47.9087 10.7711 49.7702 12.1436 51.1427C13.516 52.5151 15.3775 53.2862 17.3185 53.2862H43.9315C45.8725 53.2862 47.734 52.5151 49.1064 51.1427C50.4789 49.7702 51.25 47.9087 51.25 45.9677V32.6612C51.25 30.7202 50.4789 28.8587 49.1064 27.4862C47.734 26.1137 45.8725 25.3427 43.9315 25.3427ZM21.9758 19.3548C21.9758 17.0608 22.8871 14.8609 24.5091 13.2388C26.1311 11.6168 28.3311 10.7056 30.625 10.7056C32.9189 10.7056 35.1189 11.6168 36.7409 13.2388C38.3629 14.8609 39.2742 17.0608 39.2742 19.3548V25.3427H21.9758V19.3548ZM47.2581 45.9677C47.2581 46.8499 46.9076 47.6961 46.2837 48.3199C45.6599 48.9438 44.8137 49.2943 43.9315 49.2943H17.3185C16.4363 49.2943 15.5901 48.9438 14.9663 48.3199C14.3424 47.6961 13.9919 46.8499 13.9919 45.9677V32.6612C13.9919 31.7789 14.3424 30.9328 14.9663 30.3089C15.5901 29.6851 16.4363 29.3346 17.3185 29.3346H43.9315C44.8137 29.3346 45.6599 29.6851 46.2837 30.3089C46.9076 30.9328 47.2581 31.7789 47.2581 32.6612V45.9677Z" fill="#1A1A1A"/>
</svg>
