<svg width="24" height="24" viewBox="0 0 24 24" fill="none" xmlns="http://www.w3.org/2000/svg">
<path fill-rule="evenodd" clip-rule="evenodd" d="M11.1356 7.30542C11.361 7.10986 11.6666 7 11.9852 7C12.3039 7 12.6095 7.10986 12.8349 7.30542L19.6331 13.2065C19.7479 13.3028 19.8395 13.4179 19.9024 13.5451C19.9654 13.6724 19.9986 13.8093 20 13.9478C20.0013 14.0863 19.9709 14.2237 19.9105 14.3519C19.8501 14.4801 19.7609 14.5965 19.648 14.6945C19.5352 14.7924 19.401 14.8699 19.2533 14.9223C19.1056 14.9748 18.9474 15.0012 18.7878 15C18.6282 14.9988 18.4706 14.97 18.3239 14.9153C18.1773 14.8606 18.0447 14.7812 17.9339 14.6815L11.9852 9.51794L6.03661 14.6815C5.80995 14.8716 5.50639 14.9767 5.1913 14.9743C4.87621 14.9719 4.57479 14.8622 4.35198 14.6688C4.12917 14.4754 4.00278 14.2138 4.00004 13.9403C3.99731 13.6668 4.11844 13.4033 4.33734 13.2065L11.1356 7.30542Z" fill="#1A1A1A"/>
</svg>
