<svg width="70" height="70" viewBox="0 0 70 70" fill="none" xmlns="http://www.w3.org/2000/svg">
<path d="M11.666 35.0001C11.666 28.8117 14.1243 22.8768 18.5002 18.5009C22.876 14.1251 28.811 11.6667 34.9993 11.6667C41.1877 11.6667 47.1227 14.1251 51.4985 18.5009C55.8744 22.8768 58.3327 28.8117 58.3327 35.0001V49.8459C58.3327 52.3192 58.3327 53.5501 57.9652 54.5388C57.673 55.3223 57.2157 56.0338 56.6244 56.6251C56.0331 57.2164 55.3216 57.6737 54.5381 57.9659C53.5493 58.3334 52.3156 58.3334 49.8452 58.3334H34.9993C28.811 58.3334 22.876 55.8751 18.5002 51.4992C14.1243 47.1234 11.666 41.1885 11.666 35.0001Z" stroke="#FEFEFE" stroke-width="4"/>
<path d="M26.25 32.0835H43.75M35 43.7502H43.75" stroke="#FEFEFE" stroke-width="4" stroke-linecap="round" stroke-linejoin="round"/>
</svg>
