<svg width="26" height="20" viewBox="0 0 26 20" fill="none" xmlns="http://www.w3.org/2000/svg">
<path d="M8.91762 15.25L23.0426 1.125C23.3759 0.791667 23.7648 0.625 24.2093 0.625C24.6537 0.625 25.0426 0.791667 25.3759 1.125C25.7093 1.45833 25.876 1.85444 25.876 2.31333C25.876 2.77222 25.7093 3.16778 25.3759 3.5L10.0843 18.8333C9.75095 19.1667 9.36206 19.3333 8.91762 19.3333C8.47317 19.3333 8.08429 19.1667 7.75095 18.8333L0.584285 11.6667C0.250952 11.3333 0.0909515 10.9378 0.104285 10.48C0.117618 10.0222 0.291507 9.62611 0.625951 9.29167C0.960396 8.95722 1.35651 8.79056 1.81428 8.79167C2.27206 8.79278 2.66762 8.95944 3.00095 9.29167L8.91762 15.25Z" fill="#FFA321"/>
</svg>
