<svg width="45" height="45" viewBox="0 0 45 45" fill="none" xmlns="http://www.w3.org/2000/svg">
<path d="M37.5 25.3123V5.62476C37.5 5.12747 37.3025 4.65056 36.9508 4.29893C36.5992 3.9473 36.1223 3.74976 35.625 3.74976H9.375C8.87772 3.74976 8.40081 3.9473 8.04918 4.29893C7.69754 4.65056 7.5 5.12747 7.5 5.62476V39.3748C7.5 39.872 7.69754 40.349 8.04918 40.7006C8.40081 41.0522 8.87772 41.2498 9.375 41.2498H19.6875M15.9375 11.2498H29.0625M15.9375 18.7498H29.0625M15.9375 26.2498H21.5625" stroke="#1A1A1A" stroke-width="3.27128" stroke-linecap="round" stroke-linejoin="round"/>
<path d="M36.5617 41.2495L33.3132 38.0011M33.3132 38.0011C33.7575 37.5678 34.1114 37.0507 34.3543 36.4796C34.5971 35.9086 34.7242 35.2949 34.7281 34.6744C34.732 34.0538 34.6126 33.4387 34.3769 32.8646C34.1412 32.2906 33.7939 31.769 33.355 31.3302C32.9162 30.8914 32.3946 30.5442 31.8205 30.3085C31.2464 30.0729 30.6312 29.9536 30.0107 29.9576C29.3901 29.9616 28.7765 30.0887 28.2055 30.3317C27.6345 30.5747 27.1173 30.9286 26.6842 31.373C25.8116 32.2535 25.3233 33.4438 25.3262 34.6834C25.3291 35.9231 25.8229 37.1111 26.6996 37.9875C27.5763 38.864 28.7644 39.3575 30.0041 39.36C31.2437 39.3625 32.433 38.8739 33.3132 38.0011Z" stroke="#1A1A1A" stroke-width="3.27128" stroke-linecap="round" stroke-linejoin="round"/>
</svg>
