<svg width="48" height="68" viewBox="0 0 48 68" fill="none" xmlns="http://www.w3.org/2000/svg">
<path d="M15.64 30.8571L9 24M9 24L15.64 17.1429M9 24H29.5714M15.8571 8L34.1429 8.00457C36.6663 8.00686 38.7143 10.0526 38.7143 12.576V35.4217C38.7143 36.6341 38.2327 37.7969 37.3753 38.6542C36.518 39.5115 35.3553 39.9931 34.1429 39.9931L15.8571 40" stroke="#1A1A1A" stroke-width="3.73469" stroke-linecap="round" stroke-linejoin="round"/>
<path d="M18.1919 58.1635H16.1162V57.1606H18.1919V58.1635ZM16.4272 64.0668H15.2275V52.6982H16.4272V64.0668ZM9.20361 60.8612H8.00391V53.809H9.20361V60.8612ZM8.93701 60.2138C9.82568 60.2138 10.7059 60.1757 11.5776 60.0995C12.4494 60.0191 13.3359 59.8837 14.2373 59.6933L14.3833 60.7089C13.4692 60.8951 12.5658 61.0263 11.6729 61.1025C10.7842 61.1786 9.87223 61.2167 8.93701 61.2167H8.00391V60.2138H8.93701ZM27.6626 64.0668H26.4629V52.6982H27.6626V64.0668ZM29.4272 58.246H27.3516V57.2431H29.4272V58.246ZM24.6855 53.9042C24.6813 55.0383 24.5036 56.1005 24.1523 57.0907C23.8011 58.081 23.2383 58.9929 22.4639 59.8266C21.6937 60.6602 20.7013 61.3754 19.4868 61.9721L18.814 61.0326C19.855 60.5121 20.7225 59.907 21.4165 59.2172C22.1147 58.5274 22.6353 57.7572 22.978 56.9066C23.325 56.0561 23.5007 55.1251 23.5049 54.1137V53.9042H24.6855ZM24.1143 54.9071H19.3726V53.9042H24.1143V54.9071ZM39.4946 64.0732H38.2759V52.6982H39.4946V64.0732ZM36.1177 53.9233C36.1134 55.0828 35.9336 56.1555 35.5781 57.1415C35.2227 58.1233 34.6514 59.0289 33.8643 59.8583C33.0771 60.6877 32.0531 61.4029 30.792 62.0038L30.1445 61.0263C31.2363 60.51 32.1356 59.9091 32.8423 59.2235C33.549 58.5338 34.0695 57.7678 34.4038 56.9257C34.7424 56.0793 34.9137 55.1441 34.918 54.12V53.9233H36.1177ZM35.4385 54.8881H30.6968V53.9233H35.4385V54.8881Z" fill="#1A1A1A"/>
</svg>
