<svg width="24" height="24" viewBox="0 0 24 24" fill="none" xmlns="http://www.w3.org/2000/svg">
<path d="M6.05163 3.59449C5.94589 3.53366 5.82544 3.50107 5.70252 3.50003C5.5796 3.49898 5.45859 3.52953 5.35177 3.58856C5.24496 3.64759 5.15615 3.733 5.09436 3.83612C5.03258 3.93923 5.00002 4.05638 5 4.17566V19.8243C5.00002 19.9436 5.03258 20.0608 5.09436 20.1639C5.15615 20.267 5.24496 20.3524 5.35177 20.4114C5.45859 20.4705 5.5796 20.501 5.70252 20.5C5.82544 20.4989 5.94589 20.4663 6.05163 20.4055L19.6589 12.5812C19.7629 12.5213 19.849 12.4363 19.9088 12.3344C19.9686 12.2325 20 12.1173 20 12C20 11.8827 19.9686 11.7675 19.9088 11.6656C19.849 11.5637 19.7629 11.4787 19.6589 11.4188L6.05163 3.59449Z" stroke="#1A1A1A" stroke-width="1.75006" stroke-linecap="round" stroke-linejoin="round"/>
</svg>
