<svg width="36" height="36" viewBox="0 0 36 36" fill="none" xmlns="http://www.w3.org/2000/svg">
<path d="M6 6C6 5.20435 6.31607 4.44129 6.87868 3.87868C7.44129 3.31607 8.20435 3 9 3H21C21.3978 3.00008 21.7793 3.15818 22.0605 3.4395L29.5605 10.9395C29.8418 11.2207 29.9999 11.6022 30 12V30C30 30.7956 29.6839 31.5587 29.1213 32.1213C28.5587 32.6839 27.7956 33 27 33H9C8.20435 33 7.44129 32.6839 6.87868 32.1213C6.31607 31.5587 6 30.7956 6 30V6ZM26.379 12L21 6.621V12H26.379ZM18 6H9V30H27V15H19.5C19.1022 15 18.7206 14.842 18.4393 14.5607C18.158 14.2794 18 13.8978 18 13.5V6ZM12 19.5C12 19.1022 12.158 18.7206 12.4393 18.4393C12.7206 18.158 13.1022 18 13.5 18H22.5C22.8978 18 23.2794 18.158 23.5607 18.4393C23.842 18.7206 24 19.1022 24 19.5C24 19.8978 23.842 20.2794 23.5607 20.5607C23.2794 20.842 22.8978 21 22.5 21H13.5C13.1022 21 12.7206 20.842 12.4393 20.5607C12.158 20.2794 12 19.8978 12 19.5ZM12 25.5C12 25.1022 12.158 24.7206 12.4393 24.4393C12.7206 24.158 13.1022 24 13.5 24H22.5C22.8978 24 23.2794 24.158 23.5607 24.4393C23.842 24.7206 24 25.1022 24 25.5C24 25.8978 23.842 26.2794 23.5607 26.5607C23.2794 26.842 22.8978 27 22.5 27H13.5C13.1022 27 12.7206 26.842 12.4393 26.5607C12.158 26.2794 12 25.8978 12 25.5Z" fill="#4D4D4D"/>
</svg>
